<?xml version="1.0" encoding="utf-8"?>
<!-- Generator: Adobe Illustrator 19.2.1, SVG Export Plug-In . SVG Version: 6.00 Build 0)  -->
<!DOCTYPE svg PUBLIC "-//W3C//DTD SVG 1.1//EN" "http://www.w3.org/Graphics/SVG/1.1/DTD/svg11.dtd">
<svg version="1.1" id="Layer_1" xmlns="http://www.w3.org/2000/svg" xmlns:xlink="http://www.w3.org/1999/xlink" x="0px" y="0px"
	 viewBox="0 0 100.3 73.3" style="enable-background:new 0 0 100.3 73.3;" xml:space="preserve">
<style type="text/css">
	.st0{fill:#B79D7B;}
</style>
<g>
	<path class="st0" d="M31,11.9H0V0h31V11.9z M0.1,15.2h13.7v12H0v-12H0.1z M0,30.6h31.2v12H0V30.6z M13.7,57.7H0V45.8h13.7V57.7z
		 M0,61.3h31.2v11.8H0V61.3z M48.2,27.1H17.3V15.2h30.9V27.1z M48.3,57.7h-31v-12h31V57.7z M65.5,42.6h-31V30.5h31V42.6z M34.5,61.3
		h31.2v11.8H34.5V61.3z M65.5,12H34.6V0h30.9V12z M51.8,15.2h31.2v11.9H51.8V15.2z M82.9,57.7H51.8V45.8h31.2V57.7z M100.1,11.9H69
		V0h31.2V11.9z M100.1,42.6H69V30.7h31.2V42.6z M69,61.1h31.2v12.1H69V61.1z M100.1,15.4v11.8H86.3V15.4H100.1z M86.3,45.8h13.9v12
		H86.3V45.8z"/>
</g>
</svg>
